{"title":"National.Geographic.King.of.Coke.Living.the.High.Life.720p.HDTV.","uid":8467618,"size":445746878,"categoryP":"video","categoryS":"hd___tv_shows","magnet":"?xt=urn:btih:e904cc84627f917922a03e0ab92892e04386fa15&amp;dn=National.Geographic.King.of.Coke.Living.the.High.Life.720p.HDTV.&amp;tr=udp%3A%2F%2Ftracker.openbittorrent.com%3A80&amp;tr=udp%3A%2F%2Fopen.demonii.com%3A1337&amp;tr=udp%3A%2F%2Ftracker.coppersurfer.tk%3A6969&amp;tr=udp%3A%2F%2Fexodus.desync.com%3A6969","seeders":0,"leechers":0,"uploader":"P2P4FREE","files":1,"time":1368400585,"description":"General\n\nFormat                                   : AVI\nFormat/Info                              : Audio Video Interleave\nFile size                                : 425 MiB\nDuration                                 : 44mn 53s\nOverall bit rate                         : 1 324 Kbps\nWriting application                      : Lavf53.21.1\n\nVideo\n\nID                                       : 0\nFormat                                   : MPEG-4 Visual\nFormat profile                           : Advanced Simple@L5\nFormat settings, BVOP                    : 2\nFormat settings, QPel                    : No\nFormat settings, GMC                     : No warppoints\nFormat settings, Matrix                  : Default (H.263)\nMuxing mode                              : Packed bitstream\nCodec ID                                 : XVID\nCodec ID/Hint                            : XviD\nDuration                                 : 44mn 53s\nBit rate                                 : 1 182 Kbps\nWidth                                    : 704 pixels\nHeight                                   : 384 pixels\nDisplay aspect ratio                     : 16:9\nFrame rate                               : 29.970 fps\nColor space                              : YUV\nChroma subsampling                       : 4:2:0\nBit depth                                : 8 bits\nScan type                                : Progressive\nCompression mode                         : Lossy\nBits/(Pixel*Frame)                       : 0.146\nStream size                              : 380 MiB (89%)\nWriting library                          : XviD 64\n\nAudio\n\nID                                       : 1\nFormat                                   : MPEG Audio\nFormat version                           : Version 1\nFormat profile                           : Layer 3\nMode                                     : Joint stereo\nMode extension                           : MS Stereo\nCodec ID                                 : 55\nCodec ID/Hint                            : MP3\nDuration                                 : 44mn 53s\nBit rate mode                            : Constant\nBit rate                                 : 128 Kbps\nChannel(s)                               : 2 channels\nSampling rate                            : 48.0 KHz\nCompression mode                         : Lossy\nStream size                              : 41.1 MiB (10%)\nAlignment                                : Aligned on interleaves\nInterleave, duration                     : 24 ms (0.72 video frame)\n","torrent":{"xt":"urn:btih:e904cc84627f917922a03e0ab92892e04386fa15","amp;dn":"National.Geographic.King.of.Coke.Living.the.High.Life.720p.HDTV.","amp;tr":["udp%3A%2F%2Ftracker.openbittorrent.com%3A80","udp%3A%2F%2Fopen.demonii.com%3A1337","udp%3A%2F%2Ftracker.coppersurfer.tk%3A6969","udp%3A%2F%2Fexodus.desync.com%3A6969"],"infoHash":"e904cc84627f917922a03e0ab92892e04386fa15","infoHashBuffer":{"type":"Buffer","data":[233,4,204,132,98,127,145,121,34,160,62,10,185,40,146,224,67,134,250,21]},"announce":[],"urlList":[]}}